<svg xmlns="http://www.w3.org/2000/svg" viewBox="0 8.8100004196167 684.8599853515625 46.97999954223633" data-asc="0.9052734375" width="684.8599853515625" height="46.97999954223633"><defs/><g fill="#398ed4"><g transform="translate(0, 0)"><path d="M18.41 42.07Q15.97 44.14 13.71 45.00Q11.45 45.85 8.86 45.85Q4.59 45.85 2.29 43.76Q0 41.67 0 38.43Q0 36.52 0.87 34.95Q1.73 33.37 3.14 32.42Q4.54 31.47 6.30 30.98Q7.59 30.64 10.21 30.32Q15.53 29.69 18.04 28.81Q18.07 27.91 18.07 27.66Q18.07 24.98 16.82 23.88Q15.14 22.39 11.82 22.39Q8.72 22.39 7.24 23.47Q5.76 24.56 5.05 27.32L0.76 26.73Q1.34 23.97 2.69 22.28Q4.03 20.58 6.57 19.67Q9.11 18.75 12.45 18.75Q15.77 18.75 17.85 19.53Q19.92 20.31 20.90 21.50Q21.88 22.68 22.27 24.49Q22.49 25.61 22.49 28.54L22.49 34.40Q22.49 40.53 22.77 42.15Q23.05 43.77 23.88 45.26L19.29 45.26Q18.60 43.90 18.41 42.07M18.04 32.25Q15.65 33.23 10.86 33.91Q8.15 34.30 7.03 34.79Q5.91 35.28 5.30 36.22Q4.69 37.16 4.69 38.31Q4.69 40.06 6.02 41.24Q7.35 42.41 9.91 42.41Q12.45 42.41 14.43 41.30Q16.41 40.19 17.33 38.26Q18.04 36.77 18.04 33.86L18.04 32.25ZM29.30 45.26L29.30 19.34L33.23 19.34L33.23 22.97Q34.45 21.07 36.47 19.91Q38.50 18.75 41.09 18.75Q43.97 18.75 45.81 19.95Q47.66 21.14 48.41 23.29Q51.49 18.75 56.42 18.75Q60.28 18.75 62.35 20.89Q64.43 23.02 64.43 27.47L64.43 45.26L60.06 45.26L60.06 28.93Q60.06 26.29 59.63 25.13Q59.20 23.97 58.08 23.27Q56.96 22.56 55.44 22.56Q52.71 22.56 50.90 24.38Q49.10 26.20 49.10 30.20L49.10 45.26L44.70 45.26L44.70 28.42Q44.70 25.49 43.63 24.02Q42.55 22.56 40.11 22.56Q38.26 22.56 36.68 23.54Q35.11 24.51 34.40 26.39Q33.69 28.27 33.69 31.81L33.69 45.26L29.30 45.26ZM70.97 14.53L70.97 9.47L75.37 9.47L75.37 14.53L70.97 14.53M70.97 45.26L70.97 19.34L75.37 19.34L75.37 45.26L70.97 45.26ZM91.65 41.33L92.29 45.21Q90.43 45.61 88.96 45.61Q86.57 45.61 85.25 44.85Q83.94 44.09 83.40 42.86Q82.86 41.63 82.86 37.67L82.86 22.75L79.64 22.75L79.64 19.34L82.86 19.34L82.86 12.92L87.23 10.28L87.23 19.34L91.65 19.34L91.65 22.75L87.23 22.75L87.23 37.92Q87.23 39.79 87.46 40.33Q87.70 40.87 88.22 41.19Q88.75 41.50 89.72 41.50Q90.45 41.50 91.65 41.33ZM121.00 41.28Q119.41 43.12 117.44 44.23Q115.48 45.34 113.50 45.34Q111.33 45.34 109.28 44.07Q107.23 42.80 105.94 40.16Q104.66 37.52 104.66 34.38Q104.66 30.49 106.65 26.60Q108.64 22.71 111.60 20.75Q114.55 18.80 117.33 18.80Q119.46 18.80 121.39 19.91Q123.32 21.02 124.71 23.29L125.54 19.51L129.91 19.51L126.39 35.89Q125.66 39.31 125.66 39.67Q125.66 40.33 126.16 40.81Q126.66 41.28 127.37 41.28Q128.66 41.28 130.76 39.79Q133.54 37.84 135.17 34.56Q136.79 31.27 136.79 27.78Q136.79 23.71 134.70 20.17Q132.62 16.63 128.48 14.50Q124.34 12.38 119.34 12.38Q113.62 12.38 108.90 15.05Q104.17 17.72 101.57 22.72Q98.97 27.71 98.97 33.42Q98.97 39.40 101.57 43.73Q104.17 48.05 109.09 50.11Q114.01 52.17 120.00 52.17Q126.39 52.17 130.71 50.02Q135.03 47.88 137.18 44.80L141.60 44.80Q140.36 47.36 137.33 50.02Q134.30 52.69 130.13 54.24Q125.95 55.79 120.07 55.79Q114.65 55.79 110.07 54.39Q105.49 53.00 102.27 50.21Q99.05 47.41 97.41 43.77Q95.36 39.16 95.36 33.81Q95.36 27.86 97.80 22.46Q100.78 15.84 106.26 12.33Q111.74 8.81 119.56 8.81Q125.61 8.81 130.43 11.29Q135.25 13.77 138.04 18.68Q140.41 22.90 140.41 27.86Q140.41 34.94 135.42 40.43Q130.98 45.36 125.71 45.36Q124.02 45.36 122.99 44.85Q121.95 44.34 121.46 43.38Q121.14 42.77 121.00 41.28M109.18 34.67Q109.18 38.01 110.77 39.87Q112.35 41.72 114.40 41.72Q115.77 41.72 117.29 40.91Q118.80 40.09 120.18 38.48Q121.56 36.87 122.44 34.39Q123.32 31.91 123.32 29.42Q123.32 26.10 121.67 24.27Q120.02 22.44 117.65 22.44Q116.09 22.44 114.71 23.23Q113.33 24.02 112.04 25.78Q110.74 27.54 109.96 30.05Q109.18 32.57 109.18 34.67ZM146.70 45.26L146.70 19.34L150.66 19.34L150.66 23.02Q153.52 18.75 158.91 18.75Q161.25 18.75 163.22 19.59Q165.19 20.43 166.16 21.80Q167.14 23.17 167.53 25.05Q167.77 26.27 167.77 29.32L167.77 45.26L163.38 45.26L163.38 29.49Q163.38 26.81 162.87 25.48Q162.35 24.15 161.05 23.35Q159.74 22.56 157.98 22.56Q155.18 22.56 153.14 24.34Q151.10 26.12 151.10 31.10L151.10 45.26L146.70 45.26ZM192.26 36.91L196.80 37.48Q195.73 41.46 192.82 43.65Q189.92 45.85 185.40 45.85Q179.71 45.85 176.38 42.35Q173.05 38.84 173.05 32.52Q173.05 25.98 176.42 22.36Q179.79 18.75 185.16 18.75Q190.36 18.75 193.65 22.29Q196.95 25.83 196.95 32.25Q196.95 32.64 196.92 33.42L177.59 33.42Q177.83 37.70 180.00 39.97Q182.18 42.24 185.42 42.24Q187.84 42.24 189.55 40.97Q191.26 39.70 192.26 36.91M177.83 29.81L192.31 29.81Q192.02 26.54 190.65 24.90Q188.55 22.36 185.21 22.36Q182.18 22.36 180.11 24.39Q178.05 26.42 177.83 29.81ZM199.39 45.26L208.86 31.79L200.10 19.34L205.59 19.34L209.57 25.42Q210.69 27.15 211.38 28.32Q212.45 26.71 213.35 25.46L217.72 19.34L222.97 19.34L214.01 31.54L223.66 45.26L218.26 45.26L212.94 37.21L211.52 35.03L204.71 45.26L199.39 45.26ZM236.91 41.33L237.55 45.21Q235.69 45.61 234.23 45.61Q231.84 45.61 230.52 44.85Q229.20 44.09 228.66 42.86Q228.13 41.63 228.13 37.67L228.13 22.75L224.90 22.75L224.90 19.34L228.13 19.34L228.13 12.92L232.50 10.28L232.50 19.34L236.91 19.34L236.91 22.75L232.50 22.75L232.50 37.92Q232.50 39.79 232.73 40.33Q232.96 40.87 233.48 41.19Q234.01 41.50 234.99 41.50Q235.72 41.50 236.91 41.33ZM242.26 45.26L242.26 22.75L238.38 22.75L238.38 19.34L242.26 19.34L242.26 16.58Q242.26 13.96 242.72 12.70Q243.36 10.99 244.96 9.92Q246.56 8.86 249.44 8.86Q251.29 8.86 253.54 9.30L252.88 13.13Q251.51 12.89 250.29 12.89Q248.29 12.89 247.46 13.75Q246.63 14.60 246.63 16.94L246.63 19.34L251.68 19.34L251.68 22.75L246.63 22.75L246.63 45.26L242.26 45.26ZM255.13 14.53L255.13 9.47L259.52 9.47L259.52 14.53L255.13 14.53M255.13 45.26L255.13 19.34L259.52 19.34L259.52 45.26L255.13 45.26ZM273.41 45.26L263.55 19.34L268.19 19.34L273.75 34.86Q274.66 37.38 275.42 40.09Q276.00 38.04 277.05 35.16L282.81 19.34L287.33 19.34L277.51 45.26L273.41 45.26ZM308.96 36.91L313.50 37.48Q312.43 41.46 309.52 43.65Q306.62 45.85 302.10 45.85Q296.41 45.85 293.08 42.35Q289.75 38.84 289.75 32.52Q289.75 25.98 293.12 22.36Q296.48 18.75 301.86 18.75Q307.06 18.75 310.35 22.29Q313.65 25.83 313.65 32.25Q313.65 32.64 313.62 33.42L294.29 33.42Q294.53 37.70 296.70 39.97Q298.88 42.24 302.12 42.24Q304.54 42.24 306.25 40.97Q307.96 39.70 308.96 36.91M294.53 29.81L309.01 29.81Q308.72 26.54 307.35 24.90Q305.25 22.36 301.90 22.36Q298.88 22.36 296.81 24.39Q294.75 26.42 294.53 29.81ZM320.26 45.26L320.26 40.26L325.27 40.26L325.27 45.26L320.26 45.26ZM331.15 37.52L335.50 36.84Q335.86 39.45 337.54 40.84Q339.21 42.24 342.21 42.24Q345.24 42.24 346.70 41.00Q348.17 39.77 348.17 38.11Q348.17 36.62 346.88 35.77Q345.97 35.18 342.38 34.28Q337.55 33.06 335.68 32.17Q333.81 31.27 332.85 29.70Q331.88 28.13 331.88 26.22Q331.88 24.49 332.68 23.01Q333.47 21.53 334.84 20.56Q335.86 19.80 337.63 19.27Q339.40 18.75 341.43 18.75Q344.48 18.75 346.79 19.63Q349.10 20.51 350.20 22.01Q351.29 23.51 351.71 26.03L347.41 26.61Q347.12 24.61 345.72 23.49Q344.31 22.36 341.75 22.36Q338.72 22.36 337.43 23.36Q336.13 24.37 336.13 25.71Q336.13 26.56 336.67 27.25Q337.21 27.95 338.35 28.42Q339.01 28.66 342.24 29.54Q346.90 30.79 348.74 31.58Q350.59 32.37 351.64 33.89Q352.69 35.40 352.69 37.65Q352.69 39.84 351.40 41.78Q350.12 43.73 347.71 44.79Q345.29 45.85 342.24 45.85Q337.18 45.85 334.53 43.75Q331.88 41.65 331.15 37.52ZM357.93 14.53L357.93 9.47L362.33 9.47L362.33 14.53L357.93 14.53M357.93 45.26L357.93 19.34L362.33 19.34L362.33 45.26L357.93 45.26ZM369.02 45.26L369.02 19.34L372.95 19.34L372.95 22.97Q374.17 21.07 376.20 19.91Q378.22 18.75 380.81 18.75Q383.69 18.75 385.53 19.95Q387.38 21.14 388.13 23.29Q391.21 18.75 396.14 18.75Q400 18.75 402.08 20.89Q404.15 23.02 404.15 27.47L404.15 45.26L399.78 45.26L399.78 28.93Q399.78 26.29 399.35 25.13Q398.93 23.97 397.80 23.27Q396.68 22.56 395.17 22.56Q392.43 22.56 390.63 24.38Q388.82 26.20 388.82 30.20L388.82 45.26L384.42 45.26L384.42 28.42Q384.42 25.49 383.35 24.02Q382.28 22.56 379.83 22.56Q377.98 22.56 376.40 23.54Q374.83 24.51 374.12 26.39Q373.41 28.27 373.41 31.81L373.41 45.26L369.02 45.26ZM410.67 55.20L410.67 19.34L414.67 19.34L414.67 22.71Q416.09 20.73 417.87 19.74Q419.65 18.75 422.19 18.75Q425.51 18.75 428.05 20.46Q430.59 22.17 431.88 25.28Q433.18 28.39 433.18 32.10Q433.18 36.08 431.75 39.27Q430.32 42.46 427.60 44.15Q424.88 45.85 421.88 45.85Q419.68 45.85 417.93 44.92Q416.19 43.99 415.06 42.58L415.06 55.20L410.67 55.20M414.65 32.45Q414.65 37.45 416.67 39.84Q418.70 42.24 421.58 42.24Q424.51 42.24 426.60 39.76Q428.69 37.28 428.69 32.08Q428.69 27.12 426.65 24.66Q424.61 22.19 421.78 22.19Q418.97 22.19 416.81 24.82Q414.65 27.44 414.65 32.45ZM438.38 45.26L438.38 9.47L442.77 9.47L442.77 45.26L438.38 45.26ZM467.33 36.91L471.88 37.48Q470.80 41.46 467.90 43.65Q464.99 45.85 460.47 45.85Q454.79 45.85 451.45 42.35Q448.12 38.84 448.12 32.52Q448.12 25.98 451.49 22.36Q454.86 18.75 460.23 18.75Q465.43 18.75 468.73 22.29Q472.02 25.83 472.02 32.25Q472.02 32.64 472.00 33.42L452.66 33.42Q452.91 37.70 455.08 39.97Q457.25 42.24 460.50 42.24Q462.92 42.24 464.62 40.97Q466.33 39.70 467.33 36.91M452.91 29.81L467.38 29.81Q467.09 26.54 465.72 24.90Q463.62 22.36 460.28 22.36Q457.25 22.36 455.19 24.39Q453.13 26.42 452.91 29.81ZM477.29 45.26L477.29 9.47L481.69 9.47L481.69 45.26L477.29 45.26ZM486.87 32.30Q486.87 25.10 490.87 21.63Q494.21 18.75 499.02 18.75Q504.37 18.75 507.76 22.25Q511.16 25.76 511.16 31.93Q511.16 36.94 509.66 39.81Q508.15 42.68 505.29 44.26Q502.42 45.85 499.02 45.85Q493.58 45.85 490.22 42.36Q486.87 38.87 486.87 32.30M491.38 32.30Q491.38 37.28 493.55 39.76Q495.73 42.24 499.02 42.24Q502.29 42.24 504.47 39.75Q506.64 37.26 506.64 32.15Q506.64 27.34 504.46 24.87Q502.27 22.39 499.02 22.39Q495.73 22.39 493.55 24.85Q491.38 27.32 491.38 32.30ZM515.50 47.41L519.78 48.05Q520.04 50.02 521.26 50.93Q522.90 52.15 525.73 52.15Q528.78 52.15 530.44 50.93Q532.10 49.71 532.69 47.51Q533.03 46.17 533.01 41.87Q530.13 45.26 525.83 45.26Q520.48 45.26 517.55 41.41Q514.62 37.55 514.62 32.15Q514.62 28.44 515.97 25.31Q517.31 22.17 519.86 20.46Q522.41 18.75 525.85 18.75Q530.44 18.75 533.42 22.46L533.42 19.34L537.48 19.34L537.48 41.75Q537.48 47.80 536.24 50.33Q535.01 52.86 532.34 54.32Q529.66 55.79 525.76 55.79Q521.12 55.79 518.26 53.70Q515.41 51.61 515.50 47.41M519.14 31.84Q519.14 36.94 521.17 39.28Q523.19 41.63 526.25 41.63Q529.27 41.63 531.32 39.29Q533.37 36.96 533.37 31.98Q533.37 27.22 531.26 24.80Q529.15 22.39 526.17 22.39Q523.24 22.39 521.19 24.77Q519.14 27.15 519.14 31.84ZM544.14 14.53L544.14 9.47L548.54 9.47L548.54 14.53L544.14 14.53M544.14 45.26L544.14 19.34L548.54 19.34L548.54 45.26L544.14 45.26ZM555.22 45.26L555.22 19.34L559.18 19.34L559.18 23.02Q562.04 18.75 567.43 18.75Q569.78 18.75 571.74 19.59Q573.71 20.43 574.68 21.80Q575.66 23.17 576.05 25.05Q576.29 26.27 576.29 29.32L576.29 45.26L571.90 45.26L571.90 29.49Q571.90 26.81 571.39 25.48Q570.87 24.15 569.57 23.35Q568.26 22.56 566.50 22.56Q563.70 22.56 561.66 24.34Q559.62 26.12 559.62 31.10L559.62 45.26L555.22 45.26ZM584.28 45.26L584.28 40.26L589.28 40.26L589.28 45.26L584.28 45.26ZM613.84 35.77L618.16 36.33Q617.46 40.80 614.54 43.32Q611.62 45.85 607.37 45.85Q602.05 45.85 598.82 42.37Q595.58 38.89 595.58 32.40Q595.58 28.20 596.97 25.05Q598.36 21.90 601.21 20.32Q604.05 18.75 607.40 18.75Q611.62 18.75 614.31 20.89Q616.99 23.02 617.75 26.95L613.48 27.61Q612.87 25 611.32 23.68Q609.77 22.36 607.57 22.36Q604.25 22.36 602.17 24.74Q600.10 27.12 600.10 32.28Q600.10 37.50 602.10 39.87Q604.10 42.24 607.32 42.24Q609.91 42.24 611.65 40.65Q613.38 39.06 613.84 35.77ZM620.29 32.30Q620.29 25.10 624.29 21.63Q627.64 18.75 632.45 18.75Q637.79 18.75 641.19 22.25Q644.58 25.76 644.58 31.93Q644.58 36.94 643.08 39.81Q641.58 42.68 638.71 44.26Q635.84 45.85 632.45 45.85Q627.00 45.85 623.65 42.36Q620.29 38.87 620.29 32.30M624.80 32.30Q624.80 37.28 626.98 39.76Q629.15 42.24 632.45 42.24Q635.72 42.24 637.89 39.75Q640.06 37.26 640.06 32.15Q640.06 27.34 637.88 24.87Q635.69 22.39 632.45 22.39Q629.15 22.39 626.98 24.85Q624.80 27.32 624.80 32.30ZM649.73 45.26L649.73 19.34L653.66 19.34L653.66 22.97Q654.88 21.07 656.91 19.91Q658.94 18.75 661.52 18.75Q664.40 18.75 666.25 19.95Q668.09 21.14 668.85 23.29Q671.92 18.75 676.86 18.75Q680.71 18.75 682.79 20.89Q684.86 23.02 684.86 27.47L684.86 45.26L680.49 45.26L680.49 28.93Q680.49 26.29 680.07 25.13Q679.64 23.97 678.52 23.27Q677.39 22.56 675.88 22.56Q673.14 22.56 671.34 24.38Q669.53 26.20 669.53 30.20L669.53 45.26L665.14 45.26L665.14 28.42Q665.14 25.49 664.06 24.02Q662.99 22.56 660.55 22.56Q658.69 22.56 657.12 23.54Q655.54 24.51 654.83 26.39Q654.13 28.27 654.13 31.81L654.13 45.26L649.73 45.26Z"/></g></g></svg>